<svg width="985" height="513" viewBox="0 0 985 513" fill="none" xmlns="http://www.w3.org/2000/svg">
<path d="M975 177.5L365 195M365 195V195C356.74 173.525 344.518 153.793 328.971 136.832L325 132.5L305 112.5L272.5 85L245 65L215 45L195.072 34.372C183.386 28.1394 171.11 23.083 158.424 19.2773L147.389 15.9668C134.2 12.0101 120.505 10 106.735 10V10C90.6951 10 74.7721 12.7275 59.6468 18.0658L46.4376 22.7279C42.1625 24.2368 38.0919 26.2721 34.3198 28.7868L32.5417 29.9722C18.4589 39.3607 10 55.1664 10 72.0918V72.0918C10 80.5618 12.1253 88.8963 16.1811 96.332L17.3428 98.4618C22.3604 107.661 29.6946 115.389 38.6186 120.881L57.5 132.5L95 150L127.5 162.5L177.5 177.5L205 185L245 191L285 195H325H365ZM365 195V222.5V132.5M372.5 196L417.5 235L445 265L472.5 297.5L495 332.5L515 367.5L532.5 407.5L550 447.5L567.5 502.5" stroke="#FF773D" stroke-width="20" stroke-linecap="round" stroke-linejoin="round"/>
</svg>
