<svg width="932" height="516" viewBox="0 0 932 516" fill="none" xmlns="http://www.w3.org/2000/svg">
<path d="M10.5 227.5L550.5 210M550.5 210L564.035 185.937C569.999 175.335 576.918 165.298 584.706 155.953L600.681 136.783C607.217 128.939 614.345 121.607 622.001 114.852L653 87.5L681.937 65.372C690.962 58.4699 700.56 52.3495 710.625 47.0772L731.38 36.2057C742.436 30.4146 754.009 25.6711 765.949 22.0372L781.568 17.2838C797.435 12.4545 813.93 10 830.516 10H843C854.575 10 866.059 12.0482 876.921 16.0499L895.768 22.9933C903.703 25.9168 910.459 31.3638 914.999 38.4981V38.4981C921.6 48.872 922.867 61.7697 918.411 73.2299L914.216 84.015C910.15 94.4719 903.299 103.616 894.406 110.457L883.84 118.585C878.293 122.852 872.348 126.576 866.089 129.706L835.5 145L795.5 162.5L763.467 175.987C753.174 180.322 742.535 183.786 731.664 186.344L705.5 192.5L663 200L650.824 203.247C634.013 207.73 616.689 210 599.291 210H588H550.5ZM550.5 210V227.5V145M536 215.5L500.5 250L478 275L464.604 288.396C453.572 299.428 443.87 311.712 435.693 324.998L428 337.5L408 375L390.5 412.5L375.5 452.5L363 505" stroke="#FF773D" stroke-width="20" stroke-linecap="round" stroke-linejoin="round"/>
</svg>
